<svg width="154" height="196" viewBox="0 0 154 196" fill="none" xmlns="http://www.w3.org/2000/svg">
<path d="M22.7156 99.5842C27.7051 99.5842 31.7318 95.6577 31.7318 90.7921C31.7318 85.9266 27.7051 82 22.7156 82C17.726 82 13.6994 85.9266 13.6994 90.7921C13.6994 95.6577 17.726 99.5842 22.7156 99.5842ZM45.2999 125.107H60.0497C65.1705 125.107 65.5207 117.297 59.8746 117.297H45.7375L45.3436 116.742L37.5529 105.73C35.1895 102.444 32.4321 101.035 28.6243 101.035H16.5881C12.7803 101.035 10.0229 102.572 7.6594 105.73L0 116.656V125.107V139.063C0 141.197 1.79449 142.947 3.98289 142.947C6.17129 142.947 7.96578 141.197 7.96578 139.063V119.772L11.5985 114.693L11.6861 182C11.6861 185.243 14.0058 186.823 16.413 186.993C19.0391 187.121 21.8402 185.414 21.7965 181.829L21.884 142.691H22.6718H23.4596L23.5472 181.829C23.5472 185.286 26.1295 186.993 28.7118 186.993C31.2066 186.993 33.6576 185.329 33.6576 182L33.7889 114.693L39.9602 123.314C40.8355 124.638 42.4112 125.107 43.6804 125.107H45.2999Z" fill="#522D64"/>
<path d="M129.51 101.091C124.13 101.091 119.789 96.8283 119.789 91.5457C119.789 86.2631 124.13 82 129.51 82C134.889 82 139.23 86.2631 139.23 91.5457C139.23 96.8283 134.889 101.091 129.51 101.091ZM105.161 128.802H89.2589C83.738 128.802 83.3605 120.322 89.4477 120.322H104.689L105.114 119.72L113.513 107.764C116.061 104.196 119.034 102.667 123.139 102.667H136.116C140.221 102.667 143.194 104.335 145.742 107.764L154 119.627V128.802V143.955C154 146.272 152.065 148.171 149.706 148.171C147.347 148.171 145.412 146.272 145.412 143.955V123.01L141.495 117.495L141.401 190.571C141.401 194.093 138.9 195.807 136.305 195.993C133.474 196.132 130.454 194.278 130.501 190.386L130.406 147.893H129.557H128.708L128.613 190.386C128.613 194.139 125.829 195.993 123.045 195.993C120.355 195.993 117.713 194.186 117.713 190.571L117.571 117.495L110.918 126.856C109.974 128.292 108.275 128.802 106.907 128.802H105.161Z" fill="#522D64"/>
<path d="M70.5517 0H27.1034C20.9655 0 16 5 16 11.1034V40.5862C16 46.4138 20.5172 51.2414 26.2759 51.6897V59.7931C26.2759 60.8276 26.8966 61.7931 27.8621 62.1724C28.1724 62.3103 28.5172 62.3793 28.8621 62.3793C29.5517 62.3793 30.2069 62.1035 30.6897 61.6207L40.5862 51.7241H66.2759V55.4828C66.2759 61.6207 71.2759 66.6207 77.4138 66.6207H107.414L117.31 76.5172C117.793 77 118.483 77.2759 119.138 77.2759C119.483 77.2759 119.793 77.2069 120.138 77.069C121.103 76.6552 121.724 75.7241 121.724 74.6897V66.5517C127.448 66.1034 132 61.3103 132 55.4483V25.9655C132 19.8276 127 14.8276 120.862 14.8276H81.6897V11.069C81.6897 4.96552 76.6897 0 70.5517 0ZM39.4828 46.5517C38.7931 46.5517 38.1379 46.8276 37.6552 47.3103L31.4138 53.5517V49.1379C31.4138 47.7241 30.2414 46.5517 28.8276 46.5517H27.1034C23.8276 46.5517 21.1724 43.8965 21.1724 40.6207V11.1379C21.1724 7.86207 23.8276 5.2069 27.1034 5.2069H70.5517C73.8276 5.2069 76.4828 7.86207 76.4828 11.1379V40.6207C76.4828 43.8965 73.8276 46.5517 70.5517 46.5517H39.4828ZM120.828 20.0345C124.103 20.0345 126.793 22.6897 126.793 26V55.4828C126.793 58.7586 124.138 61.4483 120.828 61.4483H119.103C117.69 61.4483 116.517 62.6207 116.517 64.0345V68.4483L110.276 62.2069C109.793 61.7241 109.138 61.4483 108.448 61.4483H77.3793C74.1034 61.4483 71.4138 58.7931 71.4138 55.4828V51.6897C77.1379 51.2414 81.6552 46.4483 81.6552 40.6207V20.069H120.828V20.0345Z" fill="#522D64"/>
</svg>
