<svg width="143" height="143" viewBox="0 0 143 143" fill="none" xmlns="http://www.w3.org/2000/svg">
<path d="M63.8477 61.8363L60.7754 61.948L60.8871 81.3871H63.8477V61.8363ZM60.8871 42.2297L63.4008 46.084L63.7359 20.1094H60.8313V42.2297H60.8871ZM132.499 20.1094H135.459V81.443H132.499V20.1094ZM78.3711 63.4004H85.3535V74.7957H78.3711V63.4004ZM90.0457 52.0051H97.0281V74.7957H90.0457V52.0051ZM101.776 47.5922H108.759V74.8516H101.776V47.5922ZM113.451 36.9789H120.433V74.8516H113.451V36.9789ZM32.7899 25.807C39.1578 25.807 44.2969 20.668 44.2969 14.3C44.2969 7.93203 39.1578 2.79297 32.7899 2.79297C26.4219 2.79297 21.2828 7.93203 21.2828 14.3C21.2828 20.668 26.4219 25.807 32.7899 25.807ZM61.6133 59.2109H80.4379C86.9734 59.2109 87.4203 48.9887 80.2145 48.9887H62.1719L61.6691 48.2625L51.7262 33.8508C48.7098 29.5496 45.1906 27.7062 40.3309 27.7062H24.9695C20.1098 27.7062 16.5906 29.7172 13.5742 33.8508L3.79883 48.1508V59.2109V77.477C3.79883 80.2699 6.08907 82.5601 8.88203 82.5601C11.675 82.5601 13.9652 80.2699 13.9652 77.477V52.2285L18.6016 45.5812L18.7133 133.671C18.7133 137.917 21.6738 139.984 24.7461 140.207C28.0977 140.375 31.6727 138.14 31.6168 133.448L31.7285 82.225H32.734H33.7395L33.8512 133.448C33.8512 137.973 37.1469 140.207 40.4426 140.207C43.6266 140.207 46.7547 138.028 46.7547 133.671L46.9223 45.5812L54.7984 56.8648C55.9156 58.5965 57.9266 59.2109 59.5465 59.2109H61.6133ZM57.4238 15.082V20.1094H60.943H63.8477H132.555H135.515H139.09V15.082H57.4238ZM63.8477 81.443H60.8871H57.368V86.4703H95.2406V86.0234H98.9274V86.4703H138.979V81.443H135.404H132.443H63.8477ZM98.9274 86.0234H95.2406V86.4703V121.382L79.0414 137.582H84.2363L95.2406 126.577V137.582H98.9274V126.577L110.043 137.582H115.182L98.9832 121.382V86.4703V86.0234H98.9274Z" fill="#522D64"/>
</svg>
