<svg width="144" height="144" viewBox="0 0 144 144" fill="none" xmlns="http://www.w3.org/2000/svg">
<path d="M136.182 75.3952C133.977 73.2859 131.078 72.1952 128.021 72.3324C122.086 72.5945 117.437 77.5794 117.437 83.682V90.2312H111.895V68.0653C111.895 57.1286 102.721 48.3688 91.8274 48.3688H87.5192L75.8755 67.5112L74.2133 52.9222L75.8755 48.326H68.1175L69.7796 52.9222L68.1175 67.5112L56.4805 48.3682H52.1661C41.2294 48.3682 32.0983 57.1708 32.0983 68.0647V90.2306H26.5566V83.6775C26.5566 77.5749 21.9075 72.5895 15.9726 72.3279C12.9182 72.1952 10.018 73.2808 7.81239 75.3913C5.60571 77.5024 4.39071 80.3469 4.39071 83.4002V131.476H4.39521C4.31083 134.462 5.39421 137.285 7.45802 139.447C9.57021 141.658 12.4165 142.876 15.4736 142.876H128.52C131.577 142.876 134.424 141.658 136.535 139.446C138.599 137.285 139.682 134.463 139.599 131.479L139.603 83.4041C139.603 80.3503 138.388 77.5069 136.182 75.3952ZM95.8251 71.9437C96.7431 71.9437 97.4873 72.6879 97.4873 73.6059V90.2306H94.1623V73.6059C94.1629 72.6885 94.9071 71.9437 95.8251 71.9437ZM46.5062 73.6065C46.5062 72.6885 47.2504 71.9443 48.1684 71.9443C49.0864 71.9443 49.8306 72.6885 49.8306 73.6065V90.2312H46.5056L46.5062 73.6065ZM8.82377 83.3996C8.82377 81.5676 9.55277 79.8609 10.8775 78.5942C12.1268 77.3983 13.7192 76.6541 15.7774 76.7565C19.2761 76.9303 22.1235 80.0156 22.1235 83.6775V122.923C20.0715 121.376 17.5678 120.601 14.9528 120.72C12.6701 120.826 10.5535 121.643 8.82377 122.953V83.3996ZM133.33 136.384C132.062 137.711 130.355 138.442 128.52 138.442H15.4736C13.6393 138.442 11.931 137.711 10.6637 136.384C9.39752 135.058 8.74614 133.314 8.83052 131.475C8.98689 128.084 11.7651 125.305 15.1564 125.149C16.9991 125.067 18.7395 125.715 20.0653 126.982C21.3923 128.249 22.1235 129.957 22.1235 131.792H26.5566V94.6642H32.0983V109.626C32.0983 113.457 35.4716 116.276 39.3023 116.276C43.1329 116.276 46.5062 113.457 46.5062 109.626V94.6642H97.4878V109.626C97.4878 113.457 100.861 116.83 104.692 116.83C108.522 116.83 111.896 113.457 111.896 109.626V94.6642H117.437V131.792H121.871C121.871 129.958 122.602 128.249 123.929 126.982C125.255 125.715 126.99 125.063 128.838 125.149C132.228 125.305 135.007 128.083 135.164 131.475C135.248 133.314 134.597 135.058 133.33 136.384ZM135.17 122.953C133.44 121.644 131.544 120.709 128.513 120.709C126.089 120.709 123.784 121.48 121.871 122.923V83.682C121.871 80.0201 124.717 76.9151 128.217 76.761C130.051 76.6805 131.793 77.3319 133.117 78.5981C134.441 79.8649 135.17 81.572 135.17 83.4035V122.953Z" fill="#522D64"/>
<circle cx="71.269" cy="28.8731" r="16.4467" fill="#522D64"/>
</svg>
